<svg xmlns="http://www.w3.org/2000/svg" viewBox="0 0 24 24"><title>Camera roll</title><g id="Camera_roll" data-name="Camera roll"><path d="M21.89,10.21c-1.31-.66-2.18.26-3.28,1.09a4,4,0,0,0-1.32-1.57A5,5,0,1,0,10,9H8.44a4,4,0,1,0-6.06,1C.57,11.58,1,13.08,1,19a4,4,0,0,0,4,4H15a4,4,0,0,0,3.61-2.3l1.19.9A2,2,0,0,0,23,20V12A2,2,0,0,0,21.89,10.21ZM11,6a3,3,0,1,1,3,3A3,3,0,0,1,11,6ZM3,7A2,2,0,1,1,5,9,2,2,0,0,1,3,7ZM15,21H5a2,2,0,0,1-2-2V13a2,2,0,0,1,2-2H15a2,2,0,0,1,2,2v6A2,2,0,0,1,15,21Zm6-1-2-1.5v-5L21,12Z"/></g></svg>